<?xml version="1.0" encoding="UTF-8"?>
<svg version="1.1" xmlns="http://www.w3.org/2000/svg" width="512" height="512">
<path d="M0 0 C0.80050781 0.31710938 1.60101563 0.63421875 2.42578125 0.9609375 C15.69362796 6.77980651 23.90830384 17.30527737 29.3125 30.375 C30.94916478 34.61513576 32.04551952 37.87718526 31.859375 42.46875 C31.48189831 49.92701333 31.48189831 49.92701333 34.15771484 56.69238281 C36.71772794 59.40521963 39.6101746 61.67610496 42.50390625 64.01953125 C58.12291108 76.76392479 65.82947191 99.18061398 67.82080078 118.57226562 C68.01386892 121.18789179 68.09197952 123.78793317 68.140625 126.41015625 C68.16962891 127.80137695 68.16962891 127.80137695 68.19921875 129.22070312 C68.23313887 131.1189251 68.25130731 133.01749239 68.25390625 134.91601562 C68.40920499 140.78876011 69.31366065 144.5303145 72.80444336 149.30493164 C76.59141663 154.67412818 76.73479361 161.68995989 76 168 C73.95374783 176.45241665 70.71529143 182.91477222 63.3671875 187.72265625 C57.87857258 190.75357545 54.03689674 192.19332389 47.75 191.875 C44.72816013 191.79816841 44.72816013 191.79816841 42 193 C39.39949461 196.80143323 37.67715031 200.65067109 35.890625 204.875 C33.60762325 210.19715695 30.06948515 213.9625969 26 218 C29.83318619 218.08789644 33.66610928 218.14069087 37.5 218.1875 C38.57765625 218.21263672 39.6553125 218.23777344 40.765625 218.26367188 C49.0940264 218.33984628 56.10029039 217.54987359 62.51171875 211.73681641 C65.99614413 207.67051028 68.42059538 202.85389291 71 198.1875 C71.65825885 197.01796915 72.31786984 195.84919841 72.97875977 194.68115234 C74.33397927 192.28473736 75.68431262 189.88566792 77.03173828 187.48486328 C79.93509877 182.32690324 82.93930962 177.22821115 85.9375 172.125 C89.71086597 165.67995713 93.45571317 159.21978236 97.15234375 152.73046875 C97.50443405 152.11260498 97.85652435 151.49474121 98.21928406 150.8581543 C99.92314311 147.86659792 101.62371289 144.87326436 103.32006836 141.87744141 C106.5788485 136.1441763 109.88255787 130.43969372 113.2890625 124.79296875 C113.9279541 123.72973389 114.5668457 122.66649902 115.22509766 121.57104492 C117 119 117 119 120 117 C123.87338754 116.57744863 126.11598609 116.43332442 129.4375 118.5625 C131.52733804 121.82264735 131.73455901 124.2847545 131 128 C129.27089457 131.99466997 127.08341025 135.69129167 124.875 139.4375 C124.24263428 140.53715088 123.61026855 141.63680176 122.95874023 142.76977539 C120.98751769 146.18882438 118.99557322 149.59511807 117 153 C115.82602662 155.02037084 114.65281756 157.04118605 113.48046875 159.0625 C111.19106291 163.00258998 108.89176604 166.9366882 106.5859375 170.8671875 C103.40950685 176.28766368 100.26883618 181.72813706 97.13671875 187.17431641 C94.64355297 191.50800311 92.14146321 195.83649445 89.63769531 200.1640625 C88.62069482 201.92516532 87.60648996 203.68788951 86.59667969 205.453125 C79.80791368 217.31637528 73.40719635 226.51673142 61 233 C62.10794922 234.47146484 62.10794922 234.47146484 63.23828125 235.97265625 C70.22687459 245.26604779 77.14479143 254.60782448 84 264 C86.2875096 261.07024778 88.19978792 258.05999635 90.046875 254.8359375 C90.63662109 253.80984375 91.22636719 252.78375 91.83398438 251.7265625 C92.46626953 250.62054688 93.09855469 249.51453125 93.75 248.375 C94.41964393 247.20817378 95.08957084 246.04150991 95.75976562 244.875 C97.15148769 242.45212488 98.54199104 240.02855654 99.93164062 237.60449219 C103.1097103 232.06309973 106.30577973 226.53209253 109.5 221 C110.75008468 218.83338219 112.0000844 216.66671536 113.25 214.5 C180.75 97.5 180.75 97.5 182.62719727 94.24658203 C183.87032446 92.09156893 185.11300425 89.93629767 186.35522461 87.78076172 C189.24280063 82.77138407 192.13430985 77.76443838 195.04275513 72.76715088 C196.06088711 71.01729819 197.07753333 69.26659057 198.09375 67.515625 C199.36036106 65.33423929 200.6296753 63.15441975 201.90234375 60.9765625 C203.62907412 57.9989119 205.32317388 55.00601156 207 52 C207.60569824 50.9284668 208.21139648 49.85693359 208.83544922 48.75292969 C209.40408691 47.69750977 209.97272461 46.64208984 210.55859375 45.5546875 C211.07607178 44.60835449 211.5935498 43.66202148 212.12670898 42.68701172 C213.26652931 40.00577597 213.26652931 40.00577597 212.2746582 37.25878906 C209.96351002 33.16326273 205.95025174 31.34336968 202 29 C200.96875 28.34 199.9375 27.68 198.875 27 C194.82169533 25.5901549 192.92847534 26.34121613 189 28 C186.98656976 30.25743864 185.6432123 32.76424247 184.25 35.4375 C183.50905734 36.79247645 182.76438243 38.14542002 182.015625 39.49609375 C181.54044434 40.39606079 181.54044434 40.39606079 181.05566406 41.31420898 C179.8717628 43.20478212 178.72007574 44.57587691 177 46 C173.625 46.5 173.625 46.5 170 46 C167.2732271 43.76900399 165.41787432 41.6722326 163.5625 38.6875 C162.03369435 36.69107303 162.03369435 36.69107303 159 36.5 C155.99799068 36.75682877 155.99799068 36.75682877 154.0625 38.5 C151.50369811 44.52071034 154.83143727 52.30093592 156.5625 58.3125 C159.12973544 67.80898305 161.17455454 75.45727648 156.375 84.5625 C155.26898125 86.38664467 154.1436182 88.19918944 153 90 C151.91543 91.85344357 150.83203826 93.70757727 149.75 95.5625 C148.27243858 98.04496206 147.04695509 99.95304491 145 102 C138.0726257 102.67039106 138.0726257 102.67039106 134.5 100.4375 C132.39964404 97.02442156 132.60743709 94.98228766 133 91 C134.58094982 87.45869023 136.760284 84.28059234 138.88867188 81.04882812 C141.46376958 76.86784272 142.54502526 74.13232209 141.53930664 69.08276367 C141.27234985 68.05179565 141.27234985 68.05179565 141 67 C140.81236084 66.25790283 140.62472168 65.51580566 140.43139648 64.7512207 C139.79598261 62.36673734 139.11813076 59.99693129 138.4375 57.625 C135.81478787 48.01116716 133.87760514 39.15884201 139 30 C142.81313915 25.46545615 147.34396567 21.88534478 153 20 C160.37603834 19.43177186 166.27141564 19.89449953 173 23 C173.185625 22.29875 173.37125 21.5975 173.5625 20.875 C176.3855569 15.22888621 180.90737722 12.0990699 186.8125 10.0625 C197.22202859 7.45619269 204.9985792 10.67364204 214 16 C220.55970542 20.21772795 226.77624394 25.21685379 229 33 C231.36394051 44.81970257 226.72775126 52.97682262 220.8125 62.9375 C220.08939365 64.17557963 219.36749075 65.41436285 218.64672852 66.65380859 C217.16450653 69.19925814 215.67616768 71.74096677 214.18261719 74.27978516 C211.51852133 78.8127397 208.89716238 83.37002385 206.27612305 87.92797852 C204.42634167 91.14440224 202.57139408 94.35779173 200.71484375 97.5703125 C197.59995149 102.96093636 194.48778333 108.35312484 191.37695312 113.74609375 C189.50290437 116.99496496 187.62840572 120.24357632 185.75390625 123.4921875 C183.23930564 127.85065388 180.72645339 132.21012191 178.21484375 136.5703125 C172.19252671 147.02206199 166.15330663 157.46299548 160.0625 167.875 C154.98724877 176.55262241 149.97741233 185.26605568 145 194 C139.46079375 203.719733 133.86853907 213.40649686 128.21875 223.0625 C125.2272941 228.17714343 122.24604478 233.29727516 119.28515625 238.4296875 C118.66181396 239.50968018 118.03847168 240.58967285 117.39624023 241.70239258 C116.12834108 243.90729974 114.86615923 246.11550409 113.60961914 248.3269043 C110.67355048 253.47539757 107.69163067 258.53584545 104.3984375 263.46484375 C93.31029422 280.39489652 88.42248858 298.51504105 83.02734375 317.81787109 C80.63824585 326.33205806 78.14603718 334.81562889 75.65625 343.30078125 C74.70438839 346.5468398 73.7527171 349.79295414 72.80102539 353.0390625 C72.56390115 353.84768045 72.32677691 354.65629841 72.08246708 355.48941994 C69.55214627 364.12098453 67.03797516 372.75722248 64.52734375 381.39453125 C64.2249025 382.43421271 64.2249025 382.43421271 63.91635132 383.49489784 C63.72054474 384.16804716 63.52473816 384.84119648 63.32299805 385.53474426 C63.1313891 386.19245976 62.93978016 386.85017527 62.74236488 387.52782154 C62.18275308 389.45874409 61.63213299 391.39226521 61.08163452 393.32580566 C60.38423844 395.69478398 59.64213722 398.05127576 58.84634399 400.38903809 C55.79840238 409.68887493 55.45098993 418.29364172 55.5141449 427.97735214 C55.5316635 430.74501389 55.52376521 433.5116548 55.5098877 436.27932739 C55.4847717 442.14462462 55.49001984 448.00967108 55.5 453.875 C55.51156825 460.70040652 55.51029843 467.52530762 55.47593689 474.35065079 C55.4688853 477.06510628 55.48545527 479.77874289 55.50305176 482.49313354 C55.49734219 484.16583691 55.49052408 485.83853698 55.48242188 487.51123047 C55.49373642 488.25528641 55.50505096 488.99934235 55.51670837 489.76594543 C55.45372658 495.23350616 54.00582751 499.41754856 51 504 C46.79580913 507.99910839 43.6170857 509.12055026 37.90289307 509.14717102 C36.84870178 509.15432632 35.7945105 509.16148163 34.70837402 509.16885376 C32.97375916 509.17288712 32.97375916 509.17288712 31.20410156 509.17700195 C29.37688568 509.18685875 29.37688568 509.18685875 27.51275635 509.19691467 C23.47204341 509.21666357 19.43137017 509.22831566 15.390625 509.23828125 C13.99808482 509.24232971 12.60554484 509.24644666 11.21300507 509.25063133 C4.66961922 509.26967909 -1.87375538 509.2839105 -8.41716361 509.2922433 C-15.96292356 509.30201195 -23.50838988 509.32832314 -31.05404639 509.36874419 C-36.89111315 509.39893624 -42.72809588 509.41371512 -48.56523919 509.41702431 C-52.04925844 509.41937148 -55.53296384 509.42828761 -59.01689911 509.45348549 C-62.90686873 509.48116573 -66.79645418 509.47692559 -70.68652344 509.4699707 C-71.83483643 509.48278076 -72.98314941 509.49559082 -74.16625977 509.50878906 C-80.66919746 509.46640853 -84.74561402 508.94608097 -90 505 C-94.26422449 499.50139474 -95.13911925 495.50336202 -94.95141602 488.72949219 C-94.91947413 487.18793095 -94.88824464 485.64635482 -94.85762024 484.10476685 C-94.84006495 483.28312168 -94.82250965 482.46147652 -94.80442238 481.61493301 C-94.01390072 441.42765961 -94.45501476 404.89018414 -108.26739502 366.69929504 C-111.76291331 356.98133837 -114.70031327 347.14365955 -117.55859375 337.22265625 C-117.79252712 336.41299156 -118.02646049 335.60332687 -118.26748276 334.76912689 C-119.4465346 330.68789469 -120.62218188 326.60569275 -121.79577637 322.52288818 C-123.79557442 315.57006533 -125.8082669 308.62130881 -127.85960579 301.68350029 C-128.26652993 300.30104129 -128.66993365 298.91754009 -129.06942558 297.53291512 C-131.3655047 289.57711957 -133.95713845 282.23828158 -138 275 C-138.53286621 274.03449219 -139.06573242 273.06898438 -139.61474609 272.07421875 C-140.07961426 271.28660156 -140.54448242 270.49898438 -141.0234375 269.6875 C-141.56242676 268.76960693 -142.10141602 267.85171387 -142.65673828 266.90600586 C-143.22376465 265.94702393 -143.79079102 264.98804199 -144.375 264 C-145.60997487 261.89748766 -146.84432676 259.79460928 -148.078125 257.69140625 C-148.71685547 256.60359863 -149.35558594 255.51579102 -150.01367188 254.39501953 C-153.40967526 248.59059191 -156.76743796 242.76422259 -160.125 236.9375 C-160.75196777 235.85017578 -161.37893555 234.76285156 -162.02490234 233.64257812 C-163.18235762 231.63426574 -164.3378622 229.62482722 -165.4909668 227.61401367 C-166.41505015 226.01327585 -167.34909537 224.41817439 -168.30004883 222.83325195 C-170.8059204 218.63015883 -171.65227567 215.93865865 -171 211 C-169.875 208.625 -169.875 208.625 -168 207 C-164.55100382 205.87532733 -162.82200343 205.60967762 -159.515625 207.1796875 C-156.64854723 209.2543121 -155.41169433 211.0133761 -153.625 214.0625 C-153.14341431 214.87388428 -153.14341431 214.87388428 -152.65209961 215.70166016 C-151.41931324 217.79243479 -150.20952373 219.89567773 -149 222 C-147.82171928 224.03782096 -146.64332443 226.07557593 -145.46484375 228.11328125 C-143.50423444 231.50809513 -141.5457714 234.90409682 -139.59179688 238.30273438 C-135.98069294 244.58307325 -132.35151051 250.84983122 -128.625 257.0625 C-128.26220947 257.66884277 -127.89941895 258.27518555 -127.52563477 258.89990234 C-125.96683794 261.6023536 -125.96683794 261.6023536 -124 264 C-123.24976563 262.99582031 -122.49953125 261.99164063 -121.7265625 260.95703125 C-115.21608069 252.25359004 -108.65255329 243.59533434 -102 235 C-102.64066406 234.68289062 -103.28132812 234.36578125 -103.94140625 234.0390625 C-104.80636719 233.57242188 -105.67132813 233.10578125 -106.5625 232.625 C-107.40941406 232.18414062 -108.25632813 231.74328125 -109.12890625 231.2890625 C-116.66563413 225.2801883 -121.01459879 215.69906538 -125.5625 207.375 C-130.26107918 198.88076024 -135.02710702 190.43618799 -139.9375 182.0625 C-144.79945629 173.76625069 -149.63626856 165.456567 -154.4375 157.125 C-155.06003662 156.04484619 -155.68257324 154.96469238 -156.32397461 153.85180664 C-157.58576826 151.66203666 -158.84740534 149.47217645 -160.10888672 147.28222656 C-163.85438435 140.78152037 -167.60497265 134.28374968 -171.35498047 127.78564453 C-174.25294889 122.76346298 -177.14994287 117.74072934 -180.04275513 112.71557617 C-181.05947198 110.94954478 -182.07655658 109.18372569 -183.09375 107.41796875 C-184.36400873 105.21265845 -185.63359018 103.00695784 -186.90234375 100.80078125 C-190.14352004 95.17553973 -193.43326649 89.58925911 -196.83374023 84.05859375 C-200.58457625 77.437901 -199.59151372 69.44285227 -197.65234375 62.359375 C-197.0950685 60.48525963 -196.52335377 58.61537918 -195.9375 56.75 C-193.10243107 47.97677112 -193.10243107 47.97677112 -194 39 C-195.8726733 36.77211785 -195.8726733 36.77211785 -198.75 36.375 C-202.61393433 37.11806429 -203.00613348 37.86318288 -205.25 40.9375 C-205.72953125 41.66839844 -206.2090625 42.39929687 -206.703125 43.15234375 C-208 45 -208 45 -210 46 C-213.3125 46.4375 -213.3125 46.4375 -217 46 C-220.0566192 43.24904272 -221.66808867 40.61571957 -223.6171875 37 C-224.19726562 35.9275 -224.77734375 34.855 -225.375 33.75 C-226.16003906 32.19539063 -226.16003906 32.19539063 -226.9609375 30.609375 C-228.87616508 27.76270894 -228.87616508 27.76270894 -232.2734375 26.41796875 C-236.89391156 25.89973948 -239.46288542 27.17301104 -243.25 29.5625 C-243.86101562 29.91119141 -244.47203125 30.25988281 -245.1015625 30.61914062 C-248.86480385 32.87462043 -251.75514165 34.71933141 -253 39 C-251.25606088 46.57767739 -246.64243547 53.40825659 -242.6875 60 C-241.42898718 62.12718999 -240.17119933 64.25480903 -238.9140625 66.3828125 C-238.26727539 67.47368164 -237.62048828 68.56455078 -236.95410156 69.68847656 C-233.78378292 75.06106553 -230.67346459 80.4678959 -227.5625 85.875 C-226.30345388 88.05993529 -225.04433897 90.24483093 -223.78515625 92.4296875 C-223.16012207 93.51475586 -222.53508789 94.59982422 -221.89111328 95.71777344 C-218.76319852 101.14659942 -215.63141552 106.57319281 -212.5 112 C-211.24998121 114.16665583 -209.99998122 116.3333225 -208.75 118.5 C-208.13125 119.5725 -207.5125 120.645 -206.875 121.75 C-201.25 131.5 -201.25 131.5 -199.37182617 134.75561523 C-198.13253733 136.90364046 -196.89311859 139.05159075 -195.65356445 141.19946289 C-192.71797433 146.28655549 -189.78374328 151.37441847 -186.85409546 156.4649353 C-185.46671905 158.87543748 -184.07860376 161.28551376 -182.69042969 163.69555664 C-181.70826185 165.40143968 -180.72716615 167.10793986 -179.74609375 168.81445312 C-179.153125 169.84376953 -178.56015625 170.87308594 -177.94921875 171.93359375 C-177.42674561 172.84165771 -176.90427246 173.74972168 -176.3659668 174.68530273 C-175.30022034 176.49126201 -174.16319248 178.25521129 -173 180 C-172.33884298 186.94214876 -172.33884298 186.94214876 -174.5625 190.5 C-177.99136114 192.61006839 -180.04220351 192.62491523 -184 192 C-187.66496535 188.81377209 -190.10198774 185.52021841 -192.4609375 181.30078125 C-193.0895166 180.18735352 -193.7180957 179.07392578 -194.36572266 177.92675781 C-195.03549703 176.72201369 -195.70525573 175.51726086 -196.375 174.3125 C-197.08157335 173.05643342 -197.78910903 171.80090774 -198.49755859 170.54589844 C-199.95498633 167.96333501 -201.40916676 165.37898492 -202.86132812 162.79345703 C-206.0720278 157.08709564 -209.34774118 151.41831791 -212.625 145.75 C-213.24238037 144.68031982 -213.85976074 143.61063965 -214.49584961 142.50854492 C-218.62061997 135.36749901 -222.77416309 128.24361006 -226.9375 121.125 C-232.35589805 111.86044522 -237.69864746 102.55429268 -243.00915527 93.22766113 C-248.39508053 83.76943498 -253.85157129 74.35443158 -259.39648438 64.98828125 C-271.71384083 44.04728588 -271.71384083 44.04728588 -269 32.9375 C-265.95639217 24.28724616 -260.14509196 19.77659252 -252.5625 15.125 C-251.94213867 14.74335693 -251.32177734 14.36171387 -250.68261719 13.96850586 C-243.05384362 9.53036404 -235.69004133 8.11808022 -227 10 C-220.86909374 12.00015382 -216.51735224 15.5907386 -213 21 C-213 21.66 -213 22.32 -213 23 C-211.9275 22.505 -210.855 22.01 -209.75 21.5 C-203.62860204 19.23160962 -196.91036854 18.80176516 -190.62890625 20.7265625 C-184.48371918 23.58424874 -180.09666257 27.961508 -177 34 C-174.34840887 42.81944769 -176.53595888 51.1788073 -179.0625 59.75 C-179.6481498 61.74146561 -180.22276099 63.73621772 -180.78515625 65.734375 C-181.04176025 66.60288086 -181.29836426 67.47138672 -181.56274414 68.36621094 C-182.46317791 73.78992928 -180.88129936 77.73812646 -178.1484375 82.359375 C-177.55224609 83.37902344 -176.95605469 84.39867188 -176.34179688 85.44921875 C-175.69275391 86.53847656 -175.04371094 87.62773438 -174.375 88.75 C-173.69497822 89.90697352 -173.01595953 91.06453713 -172.33789062 92.22265625 C-170.92932676 94.62665148 -169.51649359 97.02805773 -168.10058594 99.42773438 C-164.85983022 104.9283488 -161.68333677 110.46603409 -158.5 116 C-157.25030108 118.16684034 -156.00030011 120.3335065 -154.75 122.5 C-132.25 161.5 -132.25 161.5 -130.37255859 164.75439453 C-129.13088473 166.9065213 -127.88902478 169.05854073 -126.64697266 171.21044922 C-123.73833177 176.25030977 -120.83148102 181.29117492 -117.93145752 186.33599854 C-116.90724335 188.11749578 -115.88242349 189.89864322 -114.85742188 191.6796875 C-113.57366625 193.91076625 -112.29104061 196.14249573 -111.00976562 198.375 C-108.43803629 202.84213648 -105.850525 207.27615395 -103.0703125 211.6171875 C-101 215 -101 215 -101 217 C-97.26689567 218.18817968 -93.72508355 218.11362739 -89.828125 218.09765625 C-89.1457074 218.0962413 -88.46328979 218.09482635 -87.76019287 218.09336853 C-85.59008316 218.08779084 -83.4200783 218.07524254 -81.25 218.0625 C-79.77474108 218.05748211 -78.29948053 218.05291971 -76.82421875 218.04882812 C-73.21611202 218.03782875 -69.60806625 218.02057953 -66 218 C-66.53399414 217.44892578 -67.06798828 216.89785156 -67.61816406 216.33007812 C-72.32191154 211.29477955 -75.25104224 206.86262121 -77.75 200.5 C-80.07711611 195.05784586 -80.07711611 195.05784586 -84.85546875 191.890625 C-87.94092527 191.70118351 -87.94092527 191.70118351 -91.0390625 191.90234375 C-97.67266548 192.12113013 -103.64868385 188.20224635 -108.4296875 183.84375 C-114.08844699 177.19963438 -116.36513666 169.35912446 -116.2890625 160.80078125 C-115.72643575 155.34938424 -113.98669815 149.39977091 -110.45239258 145.13061523 C-108.77221448 142.66584564 -108.62056203 141.41386216 -108.59375 138.46484375 C-108.5642627 137.14117798 -108.5642627 137.14117798 -108.53417969 135.79077148 C-108.52290039 134.84919189 -108.51162109 133.9076123 -108.5 132.9375 C-108.03972652 117.62329085 -106.59613111 103.02128416 -100 89 C-99.50757813 87.93523437 -99.01515625 86.87046875 -98.5078125 85.7734375 C-93.30052398 75.3339452 -86.34456248 66.06348804 -76.875 59.1875 C-73.77620944 56.59329126 -73.07518935 55.42761059 -72.36328125 51.37890625 C-72.19129561 48.59969867 -72.17372257 45.82675036 -72.15234375 43.04296875 C-71.96165802 30.5897238 -64.78828089 19.15908068 -56.5078125 10.359375 C-42.14307306 -3.15511507 -18.3946632 -8.24241739 0 0 Z M-47 24 C-52.27116848 30.39906042 -56.26242297 37.54414876 -56 46 C-54.98421875 45.66226563 -53.9684375 45.32453125 -52.921875 44.9765625 C-29.02980881 37.16905991 -7.63228474 37.18265134 16 46 C15.50101547 37.01827837 11.88569521 29.24860872 5.80078125 22.59765625 C-3.04990687 14.74531039 -12.4887146 12.39439037 -24.01953125 12.69140625 C-33.2241995 13.40501645 -40.43649447 17.61252718 -47 24 Z M-74 78 C-87.50866877 94.9774019 -92.32606218 112.58858366 -92 134 C-89.03 134 -86.06 134 -83 134 C-82.56429687 133.14277344 -82.12859375 132.28554687 -81.6796875 131.40234375 C-74.70005705 118.00205758 -67.43345027 110.37716775 -53 105 C-49.43440011 104.14489437 -46.11273352 103.86509094 -42.45043945 103.83886719 C-41.36193192 103.82925964 -40.27342438 103.8196521 -39.15193176 103.80975342 C-37.40029976 103.8033786 -37.40029976 103.8033786 -35.61328125 103.796875 C-34.40109421 103.79117493 -33.18890717 103.78547485 -31.93998718 103.77960205 C-29.37544627 103.77016279 -26.81089328 103.76362234 -24.24633789 103.75976562 C-20.34434545 103.75007906 -16.44288411 103.71905216 -12.54101562 103.6875 C-10.04427395 103.68096752 -7.54752852 103.67571801 -5.05078125 103.671875 C-3.89314774 103.6595282 -2.73551422 103.6471814 -1.5428009 103.63446045 C11.2478807 103.66922202 22.65051576 107.44308867 32.30078125 116.05859375 C36.88340865 121.29437724 39.9074656 127.81493121 43 134 C45.97 134 48.94 134 52 134 C53.14866387 111.92012786 46.69484575 92.49189345 32 76 C19.7301889 62.86014775 1.57807549 54.91003592 -16.25390625 53.796875 C-38.3682165 53.48356718 -58.78663656 61.77896629 -74 78 Z M-62 128 C-67.35276047 135.06743305 -69.31242079 142.0780115 -69.30078125 150.953125 C-69.30506638 151.69399353 -69.3093515 152.43486206 -69.31376648 153.19818115 C-69.31947716 154.75792425 -69.32003427 156.31769395 -69.31567383 157.87744141 C-69.3125268 160.22996956 -69.33596761 162.58122172 -69.36132812 164.93359375 C-69.43044571 181.26165011 -65.87917621 194.60692977 -54.390625 206.7421875 C-44.54662156 216.03930186 -32.48152119 220.87905937 -18.953125 221.03515625 C-5.10058451 220.29946433 7.66613593 214.2934922 17.18359375 204.19921875 C25.69822718 193.89010344 29.0941856 182.59346238 29.23828125 169.36328125 C29.25038887 168.2831501 29.25038887 168.2831501 29.26274109 167.18119812 C29.27650676 165.66257072 29.28726216 164.14391336 29.29516602 162.62524414 C29.30665562 161.09227242 29.32705965 159.55933974 29.35668945 158.02661133 C29.56522615 147.20949821 28.87456986 138.03977067 22.875 128.6875 C16.44534267 122.67716815 9.77149659 118.92136274 0.93115234 118.82299805 C-0.07734772 118.81016281 -1.08584778 118.79732758 -2.12490845 118.78410339 C-3.21032928 118.77671646 -4.29575012 118.76932953 -5.4140625 118.76171875 C-7.10128922 118.74961113 -7.10128922 118.74961113 -8.82260132 118.73725891 C-11.20479802 118.72343087 -13.58701444 118.712703 -15.96923828 118.70483398 C-19.59055795 118.68766331 -23.21095452 118.64376885 -26.83203125 118.59960938 C-29.15103498 118.58947813 -31.47004645 118.58096338 -33.7890625 118.57421875 C-34.86233795 118.55671066 -35.9356134 118.53920258 -37.04141235 118.52116394 C-46.76269929 118.54884539 -55.10161303 120.94118543 -62 128 Z M-97 154 C-100.10857961 158.31190075 -100.421537 161.78035578 -99.6484375 166.8828125 C-98.27096282 171.38035031 -94.73918709 173.50720861 -91 176 C-89.02 176 -87.04 176 -85 176 C-85 167.42 -85 158.84 -85 150 C-91.19972517 150 -92.48886108 150.1905938 -97 154 Z M45 150 C45 158.58 45 167.16 45 176 C51.19972517 176 52.48886108 175.8094062 57 172 C59.65101613 167.93510861 60.68966174 164.82763217 60 160 C58.51166256 156.25515095 56.75510358 153.61600555 53.625 151.0625 C50.5450328 149.62480724 50.5450328 149.62480724 45 150 Z M-92.03637695 246.37402344 C-93.13367105 248.25754431 -94.21008259 250.15336699 -95.26660156 252.06005859 C-98.30345672 257.21073602 -102.05934252 261.80771045 -105.75 266.5 C-107.08101509 268.23737302 -108.40934623 269.97680714 -109.734375 271.71875 C-110.57307129 272.81606445 -110.57307129 272.81606445 -111.42871094 273.93554688 C-111.94723633 274.61681641 -112.46576172 275.29808594 -113 276 C-113.58297852 276.58330078 -114.16595703 277.16660156 -114.76660156 277.76757812 C-117.6081638 282.91073827 -114.62165605 289.57597101 -113.14916992 294.86694336 C-112.35484658 297.61147144 -111.54280856 300.35060423 -110.73046875 303.08984375 C-110.29275587 304.58252303 -109.85559861 306.07536533 -109.41896057 307.56835938 C-108.25525653 311.54186704 -107.08411168 315.51314393 -105.91136169 319.48398972 C-104.70464567 323.57412213 -103.50442862 327.66616013 -102.30371094 331.75805664 C-100.63875707 337.43005646 -98.97167102 343.10142069 -97.30176353 348.77196407 C-94.84226885 357.12450123 -92.39889049 365.48148004 -89.97265625 373.84375 C-89.40929774 375.78264412 -88.84590447 377.72152814 -88.2824707 379.66040039 C-87.52215908 382.27709819 -86.76257934 384.8939935 -86.00570679 387.51168823 C-85.33487463 389.83027566 -84.66016063 392.1476962 -83.984375 394.46484375 C-83.62053711 395.719021 -83.25669922 396.97319824 -82.88183594 398.26538086 C-82.26628107 400.88570696 -82.26628107 400.88570696 -81 402 C-79.21649476 402.1128158 -77.42859256 402.15680552 -75.64160156 402.17358398 C-74.49661194 402.18707382 -73.35162231 402.20056366 -72.17193604 402.21446228 C-70.92410339 402.22490067 -69.67627075 402.23533905 -68.390625 402.24609375 C-65.77343423 402.27903774 -63.15624681 402.31224929 -60.5390625 402.34570312 C-56.39359727 402.39417073 -52.2481049 402.43791903 -48.10253906 402.47680664 C-44.11509053 402.51478563 -40.12790218 402.56806894 -36.140625 402.62109375 C-34.90088928 402.6295079 -33.66115356 402.63792206 -32.3838501 402.64659119 C-30.6474527 402.67155418 -30.6474527 402.67155418 -28.87597656 402.69702148 C-27.85973206 402.70732895 -26.84348755 402.71763641 -25.79644775 402.72825623 C-22.82968833 403.01654997 -20.65712072 403.66122619 -18 405 C-16.47508002 408.04983996 -16.76437452 410.6423369 -17 414 C-18.15583801 415.69563293 -18.15583801 415.69563293 -20 417 C-22.60063171 417.39872742 -22.60063171 417.39872742 -25.7565918 417.43237305 C-26.95409058 417.45231323 -28.15158936 417.47225342 -29.38537598 417.49279785 C-30.64394409 417.49904175 -31.90251221 417.50528564 -33.19921875 417.51171875 C-34.35603149 417.52835571 -35.51284424 417.54499268 -36.70471191 417.56213379 C-41.03212239 417.62003267 -45.3598461 417.65220997 -49.6875 417.6875 C-64.1971875 417.8421875 -64.1971875 417.8421875 -79 418 C-79 442.75 -79 467.5 -79 493 C-76.60202077 494.19898962 -75.12263602 494.12577643 -72.44506836 494.12698364 C-71.48599579 494.12980347 -70.52692322 494.13262329 -69.53878784 494.13552856 C-68.48313629 494.13350433 -67.42748474 494.1314801 -66.33984375 494.12939453 C-64.67636398 494.13202301 -64.67636398 494.13202301 -62.97927856 494.13470459 C-59.29866998 494.13912042 -55.61810911 494.13618604 -51.9375 494.1328125 C-49.38924144 494.13348562 -46.84098295 494.13445571 -44.29272461 494.13571167 C-38.9461195 494.13718828 -33.59953162 494.13513008 -28.25292969 494.13037109 C-22.06699104 494.12492869 -15.88108536 494.12669143 -9.69514751 494.1321975 C-3.75030428 494.13727767 2.19452868 494.13674581 8.13937378 494.13381577 C10.67202763 494.13314677 13.20468233 494.13397396 15.73733521 494.13629532 C19.27152767 494.13882344 22.80565608 494.13497893 26.33984375 494.12939453 C27.92332108 494.13243088 27.92332108 494.13243088 29.53878784 494.13552856 C30.49786041 494.13270874 31.45693298 494.12988892 32.44506836 494.12698364 C33.28130234 494.12660662 34.11753632 494.12622959 34.97911072 494.12584114 C37.07011765 494.12775808 37.07011765 494.12775808 39 493 C39 468.25 39 443.5 39 418 C28.44 417.67 17.88 417.34 7 417 C4 413 4 413 4 409.4375 C5 406 5 406 7.1081543 404.31713867 C10.65805846 402.70027646 13.37352967 402.56844589 17.26953125 402.48828125 C17.95053391 402.47033005 18.63153656 402.45237885 19.33317566 402.43388367 C21.4928888 402.38001369 23.65238399 402.34596218 25.8125 402.3125 C27.28323331 402.27930609 28.75393793 402.24481451 30.22460938 402.20898438 C33.81619687 402.12430284 37.40786076 402.05738039 41 402 C43.0801518 396.60774256 44.90977266 391.21755495 46.52441406 385.66992188 C46.873964 384.48241585 46.873964 384.48241585 47.23057556 383.2709198 C47.9951015 380.67102181 48.75539227 378.06990627 49.515625 375.46875 C50.05481925 373.63188319 50.59427318 371.7950926 51.13397217 369.95837402 C52.55431226 365.12197141 53.97103744 360.28451713 55.38702393 355.44683838 C56.80394279 350.60842975 58.22438432 345.77105567 59.64453125 340.93359375 C61.28796834 335.33520973 62.93030963 329.73651488 64.56726074 324.13623047 C65.08714112 322.3577424 65.60703823 320.57925923 66.12695312 318.80078125 C66.37599144 317.94889221 66.62502975 317.09700317 66.88161469 316.21929932 C68.35760158 311.17647343 69.85023541 306.13905771 71.35742188 301.10546875 C71.69263855 299.97927124 72.02785522 298.85307373 72.37322998 297.69274902 C72.96339317 295.71264292 73.55863633 293.73403914 74.16046143 291.75744629 C75.98078271 285.97895602 75.98078271 285.97895602 76 280 C74.97661589 278.01759294 74.97661589 278.01759294 73.4296875 276.2421875 C72.86958984 275.54335449 72.30949219 274.84452148 71.73242188 274.12451172 C71.11947266 273.38217285 70.50652344 272.63983398 69.875 271.875 C68.5888806 270.27264888 67.30509951 268.66841865 66.0234375 267.0625 C65.35924805 266.23363281 64.69505859 265.40476562 64.01074219 264.55078125 C60.73887616 260.40016733 57.61765058 256.14201485 54.5 251.875 C52.03018625 248.49792831 52.03018625 248.49792831 49.52197266 245.14941406 C48 243 48 243 46.80224609 240.68652344 C45.39099055 238.18658505 44.33270051 236.69425985 42 235 C36.84381696 234.01739505 31.83110523 234.24398184 26.625 234.5 C25.20713149 234.54016808 23.78915388 234.57666312 22.37109375 234.609375 C18.9117805 234.69714207 15.45658725 234.83494717 12 235 C11.87044922 236.66675781 11.87044922 236.66675781 11.73828125 238.3671875 C10.73144826 249.6531124 9.20762408 258.29931251 0.6875 266.4375 C-8.15833812 273.59222201 -16.9445474 273.98769526 -28 273 C-35.62866698 271.18210489 -41.92115025 266.1572286 -46.5390625 259.921875 C-50.99573157 252.25953169 -51.32738849 243.65359883 -52 235 C-75.41521783 231.86028899 -75.41521783 231.86028899 -92.03637695 246.37402344 Z M-36 235 C-36.34514786 241.3532772 -36.3228125 246.35121875 -33 252 C-29.10638765 255.99744201 -25.83891648 258.15160695 -20.25 258.3125 C-15.3677549 258.25622052 -12.74126754 257.29587855 -9 254 C-4.66739301 249.31610055 -3.85515853 246.00795162 -3.9375 239.75 C-3.94652344 238.85796875 -3.95554687 237.9659375 -3.96484375 237.046875 C-3.97644531 236.37140625 -3.98804688 235.6959375 -4 235 C-5.22074219 235.08378906 -6.44148438 235.16757813 -7.69921875 235.25390625 C-17.2689369 235.86254305 -26.45135816 236.11429393 -36 235 Z " fill="#000000" transform="translate(276,3)"/>
<path d="M0 0 C1.9375 1.5625 1.9375 1.5625 3 4 C3.24805103 9.39662243 2.73028922 14.42905901 1.93212891 19.76196289 C-6.01073374 73.53559177 7.30787737 129.41415096 39.5 173.3125 C45.73887107 181.359416 52.12836283 189.39876259 59.5625 196.375 C63.05843892 199.78479669 64.44710279 202.11607462 65 207 C64.3256264 210.03468121 63.71700535 211.41577342 61.3125 213.375 C57.81187761 214.32111416 55.52913675 213.87775035 52 213 C49.30004695 211.13829818 47.12229763 208.87783985 44.875 206.5 C43.90494019 205.49936523 43.90494019 205.49936523 42.9152832 204.47851562 C35.9531171 197.14615733 29.87187107 189.21667865 24 181 C23.55849609 180.3925293 23.11699219 179.78505859 22.66210938 179.15917969 C-9.99000953 133.94276618 -22.23955132 76.05052942 -15.6875 21.125 C-15.56987305 20.12903809 -15.45224609 19.13307617 -15.33105469 18.10693359 C-13.6842441 5.81903106 -13.6842441 5.81903106 -11 1 C-7.19379126 -1.5374725 -4.37584306 -1.11385096 0 0 Z " fill="#000000" transform="translate(47,228)"/>
<path d="M0 0 C5.6514186 4.27674921 5.63999468 13.45850073 6.6328125 19.9921875 C14.47805286 78.14669377 -1.04295849 139.1209859 -36.5 185.875 C-41.96885962 192.93921335 -47.79325915 199.57547877 -54 206 C-54.71542969 206.74378906 -55.43085938 207.48757813 -56.16796875 208.25390625 C-61.65470632 213.85377243 -61.65470632 213.85377243 -65.875 214.3125 C-69 214 -69 214 -71.3125 212.3125 C-73.24496181 209.6643116 -73.92190579 208.27995671 -74 205 C-72.06361801 200.33478926 -69.67660868 197.4201011 -66 194 C-34.11032807 163.27760839 -15.25206778 118.39460771 -10 75 C-9.9057373 74.24477051 -9.81147461 73.48954102 -9.71435547 72.71142578 C-7.61256908 54.17885847 -8.59723006 35.4055738 -11.34375 17.01171875 C-12.95570148 5.77487417 -12.95570148 5.77487417 -10.6875 1.5625 C-7.25345983 -1.61716683 -4.27314242 -1.0682856 0 0 Z " fill="#000000" transform="translate(474,228)"/>
<path d="M0 0 C2.6875 1.30859375 2.6875 1.30859375 5 4 C5.60319861 7.80051148 5.36327921 11.54180484 5.1875 15.375 C5.13837357 17.64828854 5.09684527 19.92175261 5.0625 22.1953125 C5.04445313 23.3390332 5.02640625 24.48275391 5.0078125 25.66113281 C4.91323072 66.08301982 20.95364006 105.43931681 48.6796875 134.77734375 C51.18835352 137.4490022 51.99128184 138.94381629 52.5625 142.625 C52 146 52 146 50.5 148.4375 C47.7085254 150.18217163 45.50315631 150.89129343 42.1875 150.671875 C27.67784759 146.2153389 14.68306716 119.70140538 7.86035156 106.85400391 C-7.57287989 77.17122976 -16.76486002 39.51854327 -11 6 C-8.25738974 0.46957163 -6.17612645 -0.60550259 0 0 Z " fill="#000000" transform="translate(92,253)"/>
<path d="M0 0 C2.83691668 2.30020271 4.79136243 4.26321578 5.23706055 7.97338867 C8.2344214 56.93354246 -4.70708464 103.5119305 -37.42578125 140.76171875 C-45.65935139 149.96703401 -45.65935139 149.96703401 -49.875 150.375 C-52.85319304 150.28294676 -53.89622686 150.06485821 -56.5 148.4375 C-58.68071663 144.89383548 -58.75331723 143.10900306 -58 139 C-56.58972622 136.93561897 -54.98363166 135.22372713 -53.2578125 133.4140625 C-25.35551438 103.58080949 -10.41133522 62.82341002 -11.05859375 22.18359375 C-11.07631836 21.04929932 -11.09404297 19.91500488 -11.11230469 18.74633789 C-11.16156517 16.53777305 -11.23552878 14.32958915 -11.33691406 12.12280273 C-11.53715633 4.62035226 -11.53715633 4.62035226 -8.6796875 1.3203125 C-5.42525947 -0.28318119 -3.58116356 -0.60955975 0 0 Z " fill="#000000" transform="translate(426,253)"/>
<path d="M0 0 C3.67477545 2.11614312 6.74050824 4.64019705 9.88671875 7.4609375 C15.83010299 12.47610089 22.51564699 13.65808001 30.01538086 14.7487793 C35.12151176 15.54559785 35.12151176 15.54559785 37.4921875 17.31640625 C39.01129136 19.52853195 39.37145746 21.2004045 39.5625 23.875 C38.6263375 26.97153751 37.85826678 28.57923322 35.5625 30.875 C20.97589316 32.47915369 9.36325433 28.49936858 -2.4375 19.875 C-3.51206981 18.90909455 -4.57682934 17.93199076 -5.625 16.9375 C-8.51522483 14.81800179 -10.4827069 13.90653896 -14.109375 14.12109375 C-18.50646463 15.54498351 -21.84626723 18.68857309 -25.41015625 21.546875 C-33.70127611 27.92301363 -42.70651807 31.15593078 -53.1875 31.1875 C-55.12882813 31.21263672 -55.12882813 31.21263672 -57.109375 31.23828125 C-60.4375 30.875 -60.4375 30.875 -62.3671875 29.63671875 C-63.71698862 27.41496582 -63.83841024 25.96602373 -63.8125 23.375 C-63.82023438 22.6015625 -63.82796875 21.828125 -63.8359375 21.03125 C-63.4375 18.875 -63.4375 18.875 -62.390625 17.1796875 C-59.44592933 15.2126308 -56.24649035 14.9835386 -52.8125 14.5 C-43.8306559 13.01121896 -37.93855401 9.90787202 -30.8125 4.25 C-21.7925526 -2.85146802 -10.75079909 -5.09594452 0 0 Z " fill="#000000" transform="translate(268.4375,320.125)"/>
<path d="M0 0 C4.00184925 0.83371859 5.39911325 2.53205359 8 5.625 C8.680625 6.73875 8.680625 6.73875 9.375 7.875 C11.01374645 9.94627582 11.01374645 9.94627582 14.375 10.5625 C18.49973039 10.63361604 19.86823921 10.24890769 23 7.625 C24.37843192 5.65581154 25.71810412 3.65835209 27 1.625 C29.88861709 0.18069145 31.79647701 0.24811494 35 0.625 C38.22061508 3.00545462 39.74909618 4.49593283 40.625 8.4375 C39.24871405 15.45655834 34.8654431 20.67710561 29 24.625 C21.29321572 28.1775697 14.50503355 28.60139161 6.4375 26.125 C0.03106635 23.63360914 -3.83553647 19.49324732 -7.15625 13.55859375 C-8.41020983 10.68493579 -8.44299565 8.72596955 -8 5.625 C-5.54405875 2.30225596 -4.0743356 0.84881992 0 0 Z " fill="#000000" transform="translate(240,180.375)"/>
<path d="M0 0 C4.08995558 0.66926546 5.02353667 1.24524717 7.4375 4.5625 C8.0216658 7.40923236 7.99652011 10.16559612 7.9375 13.0625 C7.95296875 13.82175781 7.9684375 14.58101562 7.984375 15.36328125 C7.95849012 19.05834739 7.84545959 20.99081979 5.65625 24.05859375 C3.33585884 25.63139409 2.20797344 26.13041108 -0.5625 26.125 C-1.2225 26.14691406 -1.8825 26.16882813 -2.5625 26.19140625 C-5.79447804 25.17510066 -6.82849627 23.41203349 -8.5625 20.5625 C-9.12890625 16.96875 -9.12890625 16.96875 -9.125 13.0625 C-9.14691406 11.7734375 -9.16882813 10.484375 -9.19140625 9.15625 C-8.20955914 3.54569507 -5.6147128 0.8865336 0 0 Z " fill="#000000" transform="translate(277.5625,140.4375)"/>
<path d="M0 0 C3.52142877 2.7076102 4.85454598 4.16883419 5.62890625 8.59375 C5.60699219 9.8828125 5.58507812 11.171875 5.5625 12.5 C5.56443359 14.43359375 5.56443359 14.43359375 5.56640625 16.40625 C4.92280784 20.48977092 4.0044669 22.19689067 1 25 C-1 25.62890625 -1 25.62890625 -3 25.5625 C-3.66 25.56378906 -4.32 25.56507813 -5 25.56640625 C-8.04850869 24.70305906 -9.15576428 23.58435664 -11 21 C-11.58095931 18.15247585 -11.55902539 15.397163 -11.5 12.5 C-11.51546875 11.74074219 -11.5309375 10.98148438 -11.546875 10.19921875 C-11.52082226 6.48018964 -11.41770979 4.57401409 -9.18359375 1.50390625 C-5.93425963 -0.73400723 -3.85141706 -0.60811848 0 0 Z " fill="#000000" transform="translate(238,141)"/>
<path d="M0 0 C2.82295774 4.2344366 2.66026581 8.02762788 2 13 C0.07368842 15.92513981 -1.18131444 16.70611288 -4.4375 17.875 C-7.52966652 18.02583739 -9.28528446 17.46741381 -12 16 C-14.8172247 11.77416295 -14.67547031 7.96429984 -14 3 C-9.99589288 -2.66097903 -6.13294884 -2.23016322 0 0 Z " fill="#000000" transform="translate(262,455)"/>
</svg>
